<svg width="201" height="194" viewBox="0 0 201 194" fill="none" xmlns="http://www.w3.org/2000/svg">
<mask id="mask0_1_23" style="mask-type:luminance" maskUnits="userSpaceOnUse" x="0" y="0" width="201" height="194">
<path d="M200.837 0H0V194H200.837V0Z" fill="white"/>
</mask>
<g mask="url(#mask0_1_23)">
<path d="M200.837 97.0002C200.837 107.581 194.363 117.008 191.272 126.544C188.064 136.439 187.655 147.851 181.668 156.088C175.62 164.406 164.865 168.296 156.556 174.35C148.328 180.344 141.341 189.418 131.46 192.632C121.923 195.731 110.985 192.602 100.418 192.602C89.8514 192.602 78.9131 195.731 69.3792 192.632C59.4958 189.418 52.5088 180.344 44.2809 174.35C35.9712 168.296 25.2159 164.406 19.1688 156.088C13.1818 147.854 12.7719 136.441 9.56388 126.544C6.46793 116.997 0 107.57 0 97.0002C0 86.4301 6.47341 76.9927 9.56388 67.4569C12.7719 57.5624 13.1818 46.1497 19.1688 37.913C25.2159 29.597 35.9712 25.7043 44.2809 19.6533C52.5088 13.6598 59.4958 4.58331 69.3792 1.37181C78.9131 -1.72755 89.8514 1.39916 100.418 1.39916C110.985 1.39916 121.923 -1.72755 131.457 1.37181C141.341 4.58331 148.328 13.6598 156.556 19.6533C164.865 25.7043 175.62 29.597 181.668 37.913C187.655 46.1497 188.064 57.5624 191.272 67.4569C194.363 76.9927 200.837 86.422 200.837 97.0002Z" fill="#326CE5"/>
<path d="M19.2583 85.8166C30.8524 85.8166 30.8524 91.2874 42.4439 91.2874C54.0352 91.2874 54.0381 85.8166 65.6324 85.8166C77.2263 85.8166 77.2239 91.2874 88.8178 91.2874C100.412 91.2874 100.409 85.8166 112.004 85.8166C123.598 85.8166 123.598 91.2874 135.189 91.2874C146.781 91.2874 146.783 85.8166 158.378 85.8166C169.972 85.8166 169.972 91.2874 181.566 91.2874" stroke="white" stroke-miterlimit="10"/>
<path d="M19.2583 96.7587C30.8524 96.7587 30.8524 102.229 42.4439 102.229C54.0352 102.229 54.0381 96.7587 65.6324 96.7587C77.2263 96.7587 77.2239 102.229 88.8178 102.229C100.412 102.229 100.409 96.7587 112.004 96.7587C123.598 96.7587 123.598 102.229 135.189 102.229C146.781 102.229 146.783 96.7587 158.378 96.7587C169.972 96.7587 169.972 102.229 181.566 102.229" stroke="white" stroke-miterlimit="10"/>
<path d="M19.2583 109.89C30.8524 109.89 30.8524 115.361 42.4439 115.361C54.0352 115.361 54.0381 109.89 65.6324 109.89C77.2263 109.89 77.2239 115.361 88.8178 115.361C100.412 115.361 100.409 109.89 112.004 109.89C123.598 109.89 123.598 115.361 135.189 115.361C146.781 115.361 146.783 109.89 158.378 109.89C169.972 109.89 169.972 115.361 181.566 115.361" stroke="white" stroke-miterlimit="10"/>
<path d="M100.414 11.6075C53.3049 11.6075 15.1147 49.8391 15.1147 96.9995C15.1147 144.16 53.3049 182.392 100.414 182.392C147.523 182.392 185.713 144.171 185.713 96.9995C185.713 49.8282 147.523 11.6075 100.414 11.6075ZM100.392 174.962C57.3705 174.962 22.5445 140.081 22.5362 97.0133C22.5362 53.8989 57.4528 18.9688 100.504 19.0509C143.555 19.1329 178.33 54.011 178.291 97.0734C178.253 140.136 143.413 174.976 100.392 174.962Z" fill="white"/>
<path d="M61.0634 135.691C60.7905 134.748 59.4925 133.809 58.484 133.935C57.0522 134.118 55.626 134.356 53.9042 134.613C54.538 132.931 55.074 131.495 55.6203 130.059C56.0929 128.811 55.074 128.207 54.4344 127.539C53.7949 126.872 53.2949 127.714 52.8607 128.059C50.5462 129.895 48.3026 131.821 45.9663 133.626C44.8569 134.482 45.6931 134.98 46.1412 135.596C46.5893 136.211 47.0456 136.903 47.9611 136.096C49.0159 135.169 50.1309 134.307 51.2401 133.407C51.2813 133.511 51.3196 133.56 51.3082 133.593C51.0897 134.228 50.8522 134.857 50.6389 135.494C50.1933 136.84 51.0542 137.822 52.4671 137.6C53.0546 137.508 53.653 137.327 54.3526 137.628C53.2159 138.561 52.2292 139.436 51.1744 140.216C50.3082 140.856 50.7236 141.378 51.2458 141.857C51.7675 142.336 51.9861 143.583 53.1038 142.678C55.6156 140.65 58.1198 138.615 60.6155 136.575C60.8723 136.364 61.203 136.167 61.0634 135.691Z" fill="white"/>
<path d="M106.737 43.6708C108.524 44.4094 109.232 44.0702 109.601 42.221C109.682 41.8189 109.756 41.4195 109.855 41.0229C109.934 40.7001 109.855 40.1557 110.349 40.2241C110.844 40.2925 111.478 40.1913 111.658 40.9298C111.839 41.6684 112.063 42.3222 112.265 43.017C112.833 44.9319 113.224 45.2301 115.172 45.3313C115.905 45.3696 116.068 45.1207 115.874 44.4669C115.568 43.4246 115.303 42.3687 114.978 41.3319C114.828 40.8587 114.705 40.5797 115.353 40.3089C116.932 39.6414 117.358 38.208 117.47 36.7335C117.47 34.9117 116.377 33.5795 114.333 33.0324C112.672 32.5892 110.967 32.3129 109.284 31.9382C108.655 31.8014 108.341 32.0558 108.223 32.6576C107.578 35.9403 106.923 39.2447 106.286 42.5438C106.202 42.9897 106.139 43.4246 106.737 43.6708ZM111.53 35.1907C112.91 35.0512 114.241 35.85 114.227 36.6679C114.213 37.4858 113.735 37.8825 112.809 37.9071C112.237 37.4256 110.912 38.208 110.718 36.9852C110.636 36.4682 110.445 35.3138 111.53 35.2016V35.1907Z" fill="white"/>
<path d="M88.7445 150.687C87.9687 150.433 87.1759 150.113 86.903 151.404C86.605 152.824 86.1513 154.208 85.6816 155.918C84.9626 153.779 84.2961 151.946 83.7413 150.08C83.378 148.86 82.334 148.871 81.4542 148.712C80.484 148.554 80.659 149.533 80.5058 150.08C79.686 152.914 78.9812 155.787 78.1014 158.604C77.6695 159.994 78.6946 159.868 79.3776 160.106C80.1042 160.355 80.8724 160.653 81.1481 159.45C81.4788 158.008 81.9187 156.591 82.3643 154.98C82.5474 155.401 82.6727 155.641 82.7578 155.893C83.3042 157.535 83.8751 159.157 84.3974 160.801C84.7715 162.016 85.8647 161.942 86.736 162.062C87.6078 162.182 87.4276 161.241 87.5723 160.746C88.3921 157.907 89.0836 155.032 89.9772 152.22C90.384 150.857 89.4412 150.917 88.7445 150.687Z" fill="white"/>
<path d="M154.56 133.385C153.664 133.256 152.781 132.991 151.882 132.906C151.141 132.838 150.955 132.581 150.931 131.812C150.871 129.897 149.141 128.327 147.258 128.305C145.966 128.269 144.977 128.918 144.184 129.826C143.198 130.956 142.351 132.206 141.362 133.333C140.689 134.102 140.774 134.578 141.574 135.182C143.968 136.993 146.343 138.834 148.663 140.735C149.482 141.392 149.895 141.323 150.499 140.5C151.592 139.009 151.636 139.045 150.163 137.901C149.841 137.65 149.502 137.414 149.207 137.132C148.98 136.917 148.417 136.829 148.734 136.337C148.991 135.94 149.212 135.42 149.871 135.554C150.529 135.688 151.237 135.707 151.874 135.94C153.341 136.487 154.254 135.915 155.051 134.698C155.579 133.907 155.606 133.533 154.56 133.385ZM146.362 134.87C146.157 134.887 144.687 133.623 144.701 133.44C144.736 132.958 146.417 131.347 146.886 131.347C147.518 131.473 147.98 131.788 148.032 132.482C148.061 132.906 146.674 134.843 146.362 134.87Z" fill="white"/>
<path d="M86.6296 43.941C86.7251 44.4881 86.9025 44.9258 87.5832 44.8191C90.0424 44.3924 92.5178 44.023 94.961 43.5142C96.2509 43.2407 95.3626 42.2669 95.3763 41.5994C95.39 40.8854 95.0021 40.6693 94.3025 40.8061C92.9662 41.066 91.611 41.2438 90.2747 41.5091C89.5803 41.6459 89.3972 41.3286 89.332 40.735C89.2747 40.207 89.1981 39.7967 89.9601 39.7119C91.0888 39.5915 92.1928 39.2715 93.3215 39.1511C94.5428 39.0198 94.3186 38.2511 94.1876 37.4742C94.0565 36.6973 93.8924 36.06 92.8215 36.3554C91.8187 36.629 90.7553 36.6727 89.7444 36.9271C89.034 37.1077 88.6872 37.0639 88.5396 36.2323C88.3783 35.335 88.8755 35.2612 89.5094 35.1654C90.6328 34.9985 91.7501 34.7825 92.873 34.6183C93.592 34.5089 94.1441 34.3092 93.8541 33.4038C93.6218 32.6761 93.9525 31.5272 92.4525 31.839C90.3182 32.2849 88.1678 32.6597 86.0089 32.9333C84.9763 33.0646 84.834 33.5268 84.9872 34.3858C85.5416 37.5782 86.0856 40.7678 86.6296 43.941Z" fill="white"/>
<path d="M123.087 151.978C122.29 152.301 121.476 152.581 120.65 152.818C119.964 153.036 119.469 153.315 119.879 154.186C120.204 154.858 120.117 155.977 121.415 155.457C121.652 155.362 121.906 155.137 122.139 155.427C122.371 155.717 122.218 156.062 122.103 156.336C121.77 157.121 121.071 157.457 120.286 157.594C119.502 157.731 118.854 157.356 118.464 156.672C117.916 155.726 117.545 154.688 117.371 153.608C117.117 152.013 118.633 150.618 120.079 151.316C121.27 151.89 122.166 151.431 123.177 151.135C123.869 150.933 123.871 150.52 123.472 150.016C122.549 148.851 121.286 148.482 119.854 148.421C118.347 148.416 116.89 148.961 115.756 149.953C114.39 151.179 113.843 152.733 114.39 154.508C115.081 156.831 115.482 159.432 118.368 160.198C120.582 160.781 122.532 160.094 124.106 158.524C125.808 156.817 125.396 154.828 124.653 152.801C124.328 151.937 124.01 151.57 123.087 151.978Z" fill="white"/>
<path d="M140.034 146.811C139.033 147.593 137.946 148.264 136.943 149.046C136.397 149.473 136.123 149.339 135.771 148.825C135.418 148.31 135.309 148.004 135.897 147.618C136.806 147.019 137.678 146.363 138.564 145.728C138.853 145.52 139.203 145.35 139.17 144.847C138.937 144.225 138.542 143.677 138.025 143.26C137.517 142.902 137.123 143.449 136.727 143.723C135.908 144.292 135.049 144.817 134.284 145.457C133.647 145.988 133.464 145.504 133.15 145.126C132.773 144.686 132.768 144.412 133.295 144.067C134.32 143.397 135.268 142.609 136.301 141.958C137.148 141.427 136.968 140.914 136.47 140.301C136.031 139.753 135.763 138.933 134.79 139.671C133.008 141.001 131.177 142.267 129.355 143.548C128.781 143.95 128.756 144.349 129.158 144.916C131.043 147.533 132.904 150.168 134.771 152.802C135.11 153.278 135.44 153.467 136 153.059C137.869 151.691 139.754 150.346 141.654 149.024C142.547 148.403 142.006 147.886 141.624 147.325C141.241 146.765 140.878 146.146 140.034 146.811Z" fill="white"/>
<path d="M69.453 142.371C69.0704 142.098 68.6659 142.227 68.3216 142.494C65.5562 144.646 62.7938 146.802 60.0341 148.961C59.6704 149.235 59.3998 149.637 59.9249 149.93C60.8922 150.477 61.7772 151.844 63.0643 150.4C63.1268 150.305 63.2242 150.238 63.3359 150.214C63.4475 150.19 63.5639 150.21 63.6599 150.271C64.6873 150.944 65.7232 151.604 66.7478 152.277C67.0212 152.463 66.9309 152.753 66.8982 153.021C66.7535 154.195 67.5647 155.516 68.7317 155.579C69.9502 155.641 69.3764 154.353 69.7591 153.748C69.804 153.668 69.8357 153.582 69.8518 153.491C70.5623 150.578 71.2728 147.662 72.0381 144.505C71.7321 143.323 70.3792 143.077 69.453 142.371ZM67.7043 149.68C65.57 148.425 65.57 148.425 67.3027 147.041C67.6522 146.767 68.0132 146.494 68.5269 146.1C68.3963 147.322 68.1201 148.524 67.7043 149.68Z" fill="white"/>
<path d="M65.9247 50.1646C67.2913 52.063 69.3896 52.6265 71.6138 51.8056C73.9255 50.9685 75.7126 48.7091 75.6199 46.6439C75.5716 46.1486 75.4576 45.662 75.2812 45.1968C75.2561 45.0614 75.1842 44.9393 75.0773 44.8525C74.9704 44.7657 74.8365 44.72 74.6989 44.7235C73.9066 44.7235 72.4501 46.1433 72.4392 46.994C72.4255 48.1404 71.6933 48.7148 70.778 49.0811C69.9114 49.426 69.1385 49.0811 68.6271 48.3618C68.0179 47.5163 67.4748 46.6247 67.0042 45.6946C66.6215 44.9095 66.6924 44.0533 67.4058 43.4433C68.1191 42.8333 69.0018 42.4202 70.0155 42.9755C70.7259 43.3667 72.6412 42.702 73.0485 42.0099C73.3219 41.5667 72.9719 41.3178 72.7505 41.0716C72.3825 40.6548 71.9274 40.324 71.4175 40.1028C70.9076 39.8816 70.3551 39.7753 69.7998 39.7914C66.1433 39.8051 63.2933 42.6227 63.6788 45.7029C63.8973 47.4373 64.9711 48.8047 65.9247 50.1646Z" fill="white"/>
<path d="M104.746 154.054C103.819 151.641 103.182 151.318 100.704 151.866C100.502 151.887 100.31 151.966 100.151 152.094C99.993 152.221 99.8748 152.392 99.8104 152.585C98.7722 155.911 97.7372 159.243 96.7064 162.581C96.6161 162.873 96.4851 163.218 96.8346 163.448C97.5806 163.94 99.5399 163.251 99.8762 162.384C100.015 162.023 100.018 161.582 100.616 161.593C101.71 161.615 102.802 161.593 103.895 161.541C104.283 161.524 104.524 161.673 104.592 162.023C104.803 163.117 105.458 163.439 106.363 163.204C108.213 163.158 108.221 163.152 107.614 161.563C106.66 159.054 105.703 156.55 104.746 154.054ZM101.86 158.997C101.04 158.997 100.92 158.767 101.166 158.07C101.464 157.216 101.712 156.346 102.059 155.235C102.422 156.166 102.691 156.836 102.945 157.509C103.513 159.033 103.499 158.981 101.86 158.997Z" fill="white"/>
<path d="M128.76 51.622C129.4 51.9721 130.009 52.9047 130.747 51.6712C131.722 50.0298 132.779 48.4461 133.796 46.8348C135.02 44.8981 135.053 44.8406 137.021 46.0798C138.067 46.7418 138.343 46.0278 138.783 45.3905C139.253 44.7066 139.439 44.1841 138.51 43.637C136.324 42.3331 134.179 40.9726 132.075 39.5556C131.181 38.9593 130.738 39.1179 130.162 40.0042C129.523 40.9808 129.654 41.5006 130.643 42.0258C131.217 42.3294 131.859 42.6085 132.255 43.1774C132.053 43.5029 131.889 43.7765 131.708 44.0446C130.471 46.0032 129.268 47.9838 127.987 49.9124C127.298 50.9737 128.093 51.2553 128.76 51.622Z" fill="white"/>
<path d="M131.342 111.186C130.64 108.303 129.946 105.463 129.244 102.591C129.208 102.441 129.133 102.303 129.027 102.191C128.921 102.079 128.787 101.998 128.639 101.955C128.491 101.912 128.335 101.908 128.185 101.945C128.036 101.982 127.898 102.057 127.788 102.164L121.033 108.636C120.927 108.738 120.85 108.866 120.809 109.006C120.769 109.147 120.766 109.296 120.801 109.438C120.836 109.581 120.907 109.712 121.008 109.817C121.109 109.923 121.237 110.001 121.377 110.042C121.628 110.113 121.874 110.182 122.125 110.234C122.672 110.351 122.617 110.535 122.363 110.92C120.948 113.079 119.084 114.906 116.899 116.277L116.844 116.309C114.96 117.206 112.966 117.85 110.914 118.224C108.792 118.631 106.643 118.88 104.484 118.968C104.416 118.971 104.349 118.959 104.285 118.934C104.221 118.909 104.164 118.872 104.115 118.824C104.067 118.776 104.028 118.719 104.002 118.656C103.977 118.593 103.964 118.525 103.965 118.457V88.262C103.965 88.2232 103.973 88.1848 103.988 88.1489C104.002 88.1129 104.024 88.0807 104.052 88.0533C104.079 88.0258 104.112 88.0041 104.147 87.9889C104.183 87.9743 104.221 87.9667 104.26 87.9667C104.534 87.9667 104.867 88.0211 105.667 88.0131C107.242 87.9965 108.881 87.9965 110.461 87.9038C110.974 87.8735 111.261 87.89 111.589 88.1361C112.255 88.6632 113.095 88.9192 113.941 88.8539C114.787 88.7886 115.578 88.4063 116.155 87.7831C116.725 87.158 117.044 86.3432 117.049 85.4967C117.055 84.6502 116.747 83.8312 116.185 83.1986C115.621 82.565 114.838 82.168 113.994 82.088C113.149 82.0076 112.306 82.2503 111.633 82.7666C111.444 82.9421 111.199 83.0467 110.941 83.0618C108.741 83.0509 106.542 83.0509 104.345 83.0618C104.21 83.0793 104.074 83.0429 103.965 82.9606V79.5083C103.964 79.3905 104.004 79.276 104.08 79.1856C104.236 79.0233 104.422 78.8922 104.626 78.8C108.179 76.9943 110.021 74.029 110.023 70.0818C110.023 63.8364 103.938 59.293 97.9207 60.9288C93.1498 62.2253 90.051 66.9688 90.9502 71.8079C91.6115 75.3638 93.7018 77.8531 97.1009 79.1719C97.2287 79.2182 97.3507 79.2788 97.4642 79.3526C97.5262 79.3995 97.5759 79.4605 97.6094 79.5301C97.6435 79.6001 97.6601 79.6768 97.6586 79.7544V82.5778C97.6586 82.6421 97.6459 82.706 97.6208 82.7651C97.5962 82.8248 97.5598 82.8787 97.5139 82.9236C97.4685 82.9691 97.4141 83.005 97.3545 83.0292C97.2949 83.0533 97.231 83.0651 97.1667 83.0646C94.803 83.0372 92.4364 83.0481 90.0618 83.0646C89.7355 83.0628 89.4181 82.9554 89.1574 82.758C88.4824 82.2451 87.6381 82.0081 86.7951 82.0942C85.9522 82.1808 85.1736 82.5839 84.6159 83.2232C84.0572 83.8515 83.7521 84.6654 83.7602 85.5062C83.7682 86.3475 84.0889 87.1557 84.6599 87.7727C85.2308 88.3902 86.0108 88.772 86.8476 88.8449C87.6849 88.9178 88.5188 88.676 89.1877 88.1664C89.4441 87.9648 89.7634 87.8602 90.0893 87.8706C92.382 87.8706 94.6772 87.9038 96.9699 87.8706C97.1762 87.8404 97.3867 87.8848 97.5626 87.9965C97.591 88.0235 97.6128 88.0557 97.6274 88.0916C97.6421 88.1276 97.6487 88.1659 97.6478 88.2047V118.243C97.6473 118.313 97.6326 118.382 97.6047 118.446C97.5768 118.51 97.5357 118.568 97.4841 118.615C97.433 118.662 97.3725 118.698 97.3062 118.721C97.2405 118.744 97.1705 118.753 97.1009 118.747C94.3167 118.511 91.5552 118.054 88.8433 117.379C87.1797 116.977 85.561 116.408 84.0123 115.68C83.9853 115.668 83.9598 115.654 83.9357 115.636C81.7503 114.101 79.9277 112.105 78.5962 109.788C78.5588 109.734 78.5361 109.671 78.5304 109.605C78.5247 109.54 78.5361 109.474 78.564 109.414C78.5914 109.354 78.6345 109.303 78.6879 109.265C78.7414 109.227 78.8043 109.204 78.8696 109.197L79.5938 109.049C79.7376 109.017 79.87 108.948 79.9783 108.848C80.0871 108.748 80.1676 108.621 80.2115 108.481C80.256 108.34 80.2626 108.19 80.2309 108.046C80.1992 107.902 80.1302 107.768 80.0308 107.66L73.6748 100.725C73.5778 100.615 73.4534 100.533 73.3139 100.487C73.1743 100.442 73.0253 100.435 72.882 100.466C72.7387 100.498 72.6067 100.568 72.4998 100.668C72.3924 100.769 72.3144 100.896 72.2732 101.037C71.3333 104.016 70.4175 106.927 69.4885 109.878C69.4398 110.032 69.4327 110.196 69.4672 110.354C69.5022 110.512 69.5784 110.658 69.6877 110.776C69.7969 110.895 69.9355 110.983 70.0897 111.031C70.2439 111.079 70.4081 111.085 70.5651 111.049L71.0571 110.937C71.3598 110.868 71.6767 110.901 71.9582 111.031C72.2396 111.162 72.4695 111.383 72.6119 111.659C76.2679 118.772 81.7659 123.917 89.0401 127.169C91.882 128.441 93.0078 128.811 95.4614 129.186C95.565 129.201 95.6611 129.25 95.7348 129.325L99.4703 133.031C99.7206 133.276 100.056 133.412 100.406 133.412C100.756 133.412 101.091 133.276 101.342 133.031L104.971 129.476C105.054 129.395 105.162 129.345 105.277 129.333C108.911 128.991 110.532 128.091 114.442 126.3C120.494 123.528 125.301 118.706 128.394 112.808C128.667 112.282 128.908 112.22 129.372 112.376C129.55 112.436 129.73 112.494 129.919 112.548C130.111 112.608 130.315 112.615 130.511 112.569C130.707 112.523 130.886 112.426 131.032 112.287C131.177 112.148 131.282 111.972 131.337 111.779C131.392 111.585 131.393 111.38 131.342 111.186ZM100.164 75.1234C99.5252 75.1007 98.8966 74.9517 98.3157 74.6848C97.7343 74.4179 97.2116 74.0384 96.7774 73.5681C96.3436 73.0978 96.0073 72.5461 95.7874 71.9451C95.5674 71.3437 95.469 70.705 95.4969 70.0652C95.6284 67.204 98.0054 65.0922 100.689 65.2971C103.514 65.5162 105.46 67.7893 105.318 70.4102C105.165 73.2606 102.831 75.3231 100.164 75.1234Z" fill="white"/>
</g>
</svg>
