<svg xmlns="http://www.w3.org/2000/svg" height="800" width="1200" viewBox="-39.0996 -40.542 338.8632 243.252"><defs><clipPath id="a"><path d="M0 283.46h444.793V0H0z"/></clipPath></defs><g clip-path="url(#a)" transform="matrix(1.25 0 0 -1.25 -148.83 247.408)"><path d="M271.609 194.293l-11.77-20.452h-12.36l-14.588-25.314h12.382l-9.365-16.26h30.413c7.774 9.502 12.443 21.645 12.443 34.879a54.854 54.854 0 01-7.155 27.148m-60.233-62.027h.03l-.015.027 37.79 65.633h-31.97l-21.794-37.878-19.727 34.276a54.85 54.85 0 01-7.173-27.18c0-13.234 4.668-25.376 12.443-34.878zM122.977 87.75c0-10.897 4.973-16.094 13.522-16.094 8.55 0 13.523 5.197 13.523 16.093 0 10.952-4.973 16.148-13.523 16.148s-13.522-5.196-13.522-16.148m-3.912 0c0 13.243 6.594 19.613 17.434 19.613s17.434-6.37 17.434-19.613c0-13.13-6.593-19.557-17.434-19.557-10.84 0-17.434 6.426-17.434 19.557m64.762 18.049c.167.447.727 1.229 1.788 1.229 1.062 0 1.9-.838 1.9-1.9 0-.335-.112-.67-.168-.838l-13.075-34.476c-.28-.783-1.062-1.286-1.788-1.286-.727 0-1.51.503-1.788 1.286l-13.076 34.476c-.056.168-.168.503-.168.838 0 1.062.839 1.9 1.9 1.9 1.062 0 1.62-.782 1.788-1.23l11.344-30.061zm13.018-19.278V70.427c0-1.005-.838-1.9-1.9-1.9-1.06 0-1.9.895-1.9 1.9v34.7c0 1.006.84 1.9 1.9 1.9 1.062 0 1.9-.894 1.9-1.9V89.985h19.445v15.142c0 1.006.84 1.9 1.9 1.9 1.062 0 1.9-.894 1.9-1.9v-34.7c0-1.005-.838-1.9-1.9-1.9-1.06 0-1.9.895-1.9 1.9V86.52z" fill="#264670"/><path d="M226.404 71.153c0 1.845 1.006 2.683 2.626 2.683 1.621 0 2.627-.838 2.627-2.683 0-1.844-1.006-2.626-2.627-2.626-1.62 0-2.626.782-2.626 2.626m20.562 23.972c4.973 0 7.711-2.626 8.604-3.855.28-.391.392-.671.392-1.062 0-.95-.726-1.62-1.62-1.62-.56 0-.95.223-1.342.67-.838.95-2.346 2.626-6.034 2.626-5.14 0-7.879-3.296-7.879-10.169 0-6.986 2.738-10.226 7.88-10.226 3.24 0 5.195 1.452 6.48 2.403.392.279.671.391 1.062.391.895 0 1.621-.726 1.621-1.621 0-.503-.168-.893-.726-1.396-1.23-1.006-3.913-3.018-8.438-3.018-7.208 0-11.51 4.303-11.51 13.467 0 9.164 4.303 13.41 11.51 13.41m32.967-13.41c0 7.04-2.96 10.169-8.102 10.169-5.14 0-8.102-3.13-8.102-10.17 0-7.151 2.961-10.225 8.102-10.225s8.102 3.074 8.102 10.226m3.633 0c0-9.164-4.47-13.467-11.735-13.467-7.209 0-11.734 4.303-11.734 13.467 0 9.164 4.525 13.41 11.734 13.41 7.264 0 11.735-4.246 11.735-13.41m44.03 3.519V70.315a1.765 1.765 0 00-1.788-1.788 1.765 1.765 0 00-1.788 1.788v14.193c0 4.414-1.565 7.432-6.986 7.432-4.804 0-6.984-2.57-6.984-6.706V70.315a1.765 1.765 0 00-1.788-1.788 1.765 1.765 0 00-1.788 1.788v14.193c0 4.414-1.397 7.432-6.873 7.432-5.196 0-6.873-3.13-6.873-7.823V70.315a1.765 1.765 0 00-1.788-1.788 1.765 1.765 0 00-1.788 1.788v22.687c0 1.005.782 1.788 1.788 1.788a1.765 1.765 0 001.788-1.788v-1.789c.95 2.068 3.632 3.912 7.264 3.912 4.583 0 7.543-1.676 8.884-3.912 1.398 2.18 3.857 3.912 8.158 3.912 8.606 0 10.562-5.14 10.562-9.89" fill="#8a8a89"/></g></svg>